<svg version="1.1" id="Layer_1" xmlns="http://www.w3.org/2000/svg" xmlns:xlink="http://www.w3.org/1999/xlink" x="0px" y="0px"
	 width="100%" viewBox="0 0 1024 1024" enable-background="new 0 0 1024 1024" xml:space="preserve">
<path fill="#000000" opacity="1.000000" stroke="none" 
	d="
M329.418518,543.454468 
	C369.781311,472.655518 409.957825,402.172943 450.129730,331.687683 
	C461.100220,312.439026 472.133606,293.225372 482.953400,273.892273 
	C485.057373,270.132874 487.439880,268.441559 491.954865,268.524139 
	C507.613190,268.810547 523.281311,268.740021 538.942688,268.553436 
	C542.742798,268.508179 544.941467,269.679016 546.847168,273.081848 
	C601.790710,371.187714 656.840942,469.233887 711.875183,567.288940 
	C749.053772,633.530334 786.236694,699.769226 823.398743,766.019897 
	C824.263611,767.561646 825.661377,768.960632 825.219971,771.074097 
	C823.574036,772.698425 821.460632,772.085449 819.561584,772.088623 
	C787.234680,772.142456 754.907410,772.076721 722.581116,772.223633 
	C718.430054,772.242493 715.982178,770.986572 713.879700,767.249939 
	C665.850647,681.887573 617.681274,596.604309 569.565308,511.290894 
	C552.462952,480.967102 535.434631,450.601532 518.359009,420.262665 
	C517.635315,418.976715 517.078491,417.519958 515.425598,416.754700 
	C512.868713,417.339691 512.232788,419.844177 511.143341,421.730560 
	C482.984619,470.484985 454.871613,519.265869 426.781738,568.060059 
	C388.469086,634.611938 350.171844,701.172852 311.919312,767.759338 
	C310.286072,770.602356 308.463409,772.248230 304.906250,772.236694 
	C271.579803,772.128784 238.252914,772.167236 204.926163,772.136658 
	C203.628769,772.135498 202.331650,771.865784 199.416183,771.540894 
	C242.979324,695.105408 286.104889,619.437622 329.418518,543.454468 
z"/>
</svg>